name Walk6.mot
datacolumns 19
datarows 17
range 3.02000000 3.03600000
endheader

                time	   L_ground_force_vx	   L_ground_force_vy	   L_ground_force_vz	   L_ground_force_px	   L_ground_force_py	   L_ground_force_pz	   R_ground_force_vx	   R_ground_force_vy	   R_ground_force_vz	   R_ground_force_px	   R_ground_force_py	   R_ground_force_pz	   L_ground_torque_x	   L_ground_torque_y	   L_ground_torque_z	   R_ground_torque_x	   R_ground_torque_y	   R_ground_torque_z	
          3.02000000	          0.02718361	          0.08155191	          0.00640556	         -0.00006004	          0.00000000	         -0.00009326	        -26.54422805	        904.39396770	        -61.91369819	          0.45257623	          0.00000000	          0.10373568	          0.00000000	          0.00020411	          0.00000000	          0.00000000	          4.73310753	          0.00000000	
          3.02100000	          0.02503085	          0.07549743	          0.00604234	         -0.00005802	          0.00000000	         -0.00009078	        -26.12195751	        902.68079361	        -61.62887957	          0.45273526	          0.00000000	          0.10375576	          0.00000000	          0.00018537	          0.00000000	          0.00000000	          4.66987120	          0.00000000	
          3.02200000	          0.02296654	          0.06967243	          0.00568718	         -0.00005596	          0.00000000	         -0.00008817	        -25.70313347	        900.99175344	        -61.34959561	          0.45289535	          0.00000000	          0.10377573	          0.00000000	          0.00016752	          0.00000000	          0.00000000	          4.60739009	          0.00000000	
          3.02300000	          0.02099096	          0.06407943	          0.00534072	         -0.00005387	          0.00000000	         -0.00008544	        -25.28769092	        899.32719109	        -61.07600791	          0.45305648	          0.00000000	          0.10379558	          0.00000000	          0.00015056	          0.00000000	          0.00000000	          4.54566160	          0.00000000	
          3.02400000	          0.01910404	          0.05871982	          0.00500354	         -0.00005174	          0.00000000	         -0.00008263	        -24.87556203	        897.68744656	        -60.80825408	          0.45321863	          0.00000000	          0.10381531	          0.00000000	          0.00013447	          0.00000000	          0.00000000	          4.48468391	          0.00000000	
          3.02500000	          0.01730536	          0.05359403	          0.00467611	         -0.00004961	          0.00000000	         -0.00007974	        -24.46667664	        896.07285686	        -60.54644725	          0.45338180	          0.00000000	          0.10383489	          0.00000000	          0.00011925	          0.00000000	          0.00000000	          4.42445625	          0.00000000	
          3.02600000	          0.01559421	          0.04870153	          0.00435886	         -0.00004746	          0.00000000	         -0.00007679	        -24.06096254	        894.48375713	        -60.29067605	          0.45354594	          0.00000000	          0.10385430	          0.00000000	          0.00010486	          0.00000000	          0.00000000	          4.36497887	          0.00000000	
          3.02700000	          0.01396963	          0.04404097	          0.00405211	         -0.00004532	          0.00000000	         -0.00007381	        -23.65834582	        892.92048237	        -60.04100477	          0.45371102	          0.00000000	          0.10387352	          0.00000000	          0.00009130	          0.00000000	          0.00000000	          4.30625274	          0.00000000	
          3.02800000	          0.01243039	          0.03961026	          0.00375613	         -0.00004319	          0.00000000	         -0.00007080	        -23.25875106	        891.38336955	        -59.79747396	          0.45387700	          0.00000000	          0.10389254	          0.00000000	          0.00007855	          0.00000000	          0.00000000	          4.24827920	          0.00000000	
          3.02900000	          0.01097505	          0.03540659	          0.00347112	         -0.00004108	          0.00000000	         -0.00006778	        -22.86210152	        889.87275964	        -59.56010113	          0.45404382	          0.00000000	          0.10391132	          0.00000000	          0.00006659	          0.00000000	          0.00000000	          4.19105952	          0.00000000	
          3.03000000	          0.00960198	          0.03142654	          0.00319723	         -0.00003899	          0.00000000	         -0.00006476	        -22.46831923	        888.38899951	        -59.32888175	          0.45421143	          0.00000000	          0.10392984	          0.00000000	          0.00005539	          0.00000000	          0.00000000	          4.13459452	          0.00000000	
          3.03100000	          0.00830937	          0.02766613	          0.00293454	         -0.00003694	          0.00000000	         -0.00006175	        -22.07732527	        886.93244335	        -59.10379014	          0.45437976	          0.00000000	          0.10394809	          0.00000000	          0.00004494	          0.00000000	          0.00000000	          4.07888439	          0.00000000	
          3.03200000	          0.00709526	          0.02412091	          0.00268310	         -0.00003491	          0.00000000	         -0.00005877	        -21.68904007	        885.50345390	        -58.88478044	          0.45454876	          0.00000000	          0.10396602	          0.00000000	          0.00003520	          0.00000000	          0.00000000	          4.02392857	          0.00000000	
          3.03300000	          0.00595757	          0.02078597	          0.00244290	         -0.00003293	          0.00000000	         -0.00005581	        -21.30338381	        884.10240323	        -58.67178763	          0.45471836	          0.00000000	          0.10398364	          0.00000000	          0.00002616	          0.00000000	          0.00000000	          3.96972582	          0.00000000	
          3.03400000	          0.00489410	          0.01765603	          0.00221389	         -0.00003099	          0.00000000	         -0.00005290	        -20.92027663	        882.72967293	        -58.46472849	          0.45488849	          0.00000000	          0.10400090	          0.00000000	          0.00001779	          0.00000000	          0.00000000	          3.91627449	          0.00000000	
          3.03500000	          0.00390256	          0.01472550	          0.00199599	         -0.00002910	          0.00000000	         -0.00005003	        -20.53963863	        881.38565393	        -58.26350275	          0.45505908	          0.00000000	          0.10401780	          0.00000000	          0.00001007	          0.00000000	          0.00000000	          3.86357276	          0.00000000	
          3.03600000	          0.00298057	          0.01198848	          0.00178907	         -0.00002726	          0.00000000	         -0.00004722	        -20.16138976	        880.07074600	        -58.06799440	          0.45523005	          0.00000000	          0.10403431	          0.00000000	          0.00000296	          0.00000000	          0.00000000	          3.81161895	          0.00000000	
